<?xml version="1.0" encoding="UTF-8"?>
<svg id="Layer_1" data-name="Layer 1" xmlns="http://www.w3.org/2000/svg" viewBox="0 0 72.15 56.41">
  <path d="m62.67,22.32c-5.13,7.67-11.36,14.43-17.64,21.17l7.07,7.07c5.39-5.82,10.65-11.75,15.78-17.8,4.14-4.88-2.9-11.99-7.07-7.07-5.13,6.05-10.39,11.98-15.78,17.8-4.37,4.72,2.67,11.79,7.07,7.07,6.86-7.36,13.6-14.81,19.2-23.19,3.58-5.37-5.07-10.38-8.63-5.05h0Z" fill="#35aff9"/>
  <path d="m62.53,12.25c-8.79,12.23-19.47,23.07-31.62,31.99l6.84,6.84c8.47-11.11,19.21-20.16,31.4-26.95,5.62-3.13.59-11.77-5.05-8.63-13.77,7.67-25.44,18.02-34.98,30.53-2.99,3.93,2.91,9.72,6.84,6.84,13.62-10,25.34-21.85,35.21-35.57,3.76-5.23-4.91-10.23-8.63-5.05h0Z" fill="#35aff9"/>
  <path d="m7.84,8.7c-2.6,4.24-4.99,8.58-7.2,13.04-2.64,5.33,3.43,9.49,7.85,6.06,6.04-4.68,12.08-9.36,18.11-14.04l-7.85-6.06c-3.44,6.81-7.49,13.23-12.33,19.14-3.15,3.84-.24,9.43,4.86,8.36,11.54-2.44,18.95-11.81,25.01-21.23l-8.63-5.05c-5.32,10.74-12.42,20.09-21.34,28.09l7.07,7.07c11.37-11.67,22.59-23.47,33.67-35.42l-8.36-4.86c-3.1,19.48-21.76,30.61-32.94,45.36-3.61,4.76,3.84,9.57,7.85,6.06,16.49-14.43,35.77-25.71,49.71-42.9l-7.85-6.06c-7.78,12.55-18.52,22.64-29.25,32.62-4.75,4.42,2.26,11.27,7.07,7.07,12.22-10.67,24.45-21.32,36.88-31.74,4.94-4.14-2.17-11.18-7.07-7.07-12.43,10.42-24.66,21.07-36.88,31.74l7.07,7.07c11.37-10.58,22.58-21.36,30.82-34.65,2.92-4.71-4.22-10.54-7.85-6.06C42.31,22.42,23.03,33.7,6.54,48.13l7.85,6.06c11.94-15.75,30.61-26.74,33.95-47.74.72-4.52-4.63-8.88-8.36-4.86C28.91,13.53,17.69,25.33,6.32,37c-4.52,4.64,2.3,11.35,7.07,7.07,9.5-8.51,17.25-18.69,22.91-30.11,2.85-5.75-5.13-10.5-8.63-5.05-4.69,7.29-10.07,14.75-19.03,16.64l4.86,8.36c5.4-6.58,10.06-13.56,13.89-21.16,2.69-5.33-3.46-9.47-7.85-6.06C13.5,11.37,7.46,16.05,1.42,20.73l7.85,6.06c2.21-4.46,4.6-8.8,7.2-13.04,3.37-5.5-5.28-10.53-8.63-5.05h0Z" fill="#35aff9"/>
  <text transform="translate(10.07 39.7)" fill="#fff" font-family="GmarketSansTTFBold, &apos;Gmarket Sans TTF&apos;" font-size="36"><tspan x="0" y="0">CL</tspan></text>
</svg>