<svg width="159" height="57" viewBox="0 0 159 57" fill="none" xmlns="http://www.w3.org/2000/svg">
<path d="M149.066 12.1471C140.904 24.2878 130.987 35.0488 119.704 43.9037L126.056 50.6938C133.921 39.6648 143.894 30.6809 155.213 23.9404C160.432 20.8332 155.761 12.2563 150.524 15.3734C137.737 22.9874 126.901 33.2619 118.042 45.6806C115.266 49.5819 120.744 55.3297 124.394 52.4707C137.041 42.5437 147.924 30.7801 157.089 17.1602C160.58 11.9684 152.53 7.00488 149.075 12.1471H149.066Z" fill="#35AFF9"/>
<path d="M149.196 22.1436C144.432 29.7577 138.647 36.4683 132.816 43.1592L139.381 50.1776C144.386 44.4 149.27 38.5133 154.034 32.5074C157.878 27.663 151.341 20.6049 147.469 25.489C142.705 31.4949 137.821 37.3816 132.816 43.1592C128.758 47.8447 135.295 54.8631 139.381 50.1776C145.751 42.8713 152.01 35.4756 157.21 27.1568C160.534 21.826 152.502 16.8525 149.196 22.1436Z" fill="#35AFF9"/>
<path d="M98.2821 8.62299C95.8678 12.8321 93.6485 17.1404 91.5963 21.5679C89.1449 26.859 94.7814 30.9886 98.8857 27.5836C104.494 22.9378 110.103 18.2919 115.702 13.6461L108.413 7.63029C105.219 14.3906 101.458 20.7638 96.9635 26.6306C94.0385 30.4426 96.7407 35.9918 101.476 34.9296C112.192 32.5075 119.073 23.2058 124.7 13.8545L116.687 8.84139C111.746 19.503 105.154 28.7848 96.8707 36.7264L103.436 43.7449C113.994 32.16 124.412 20.4461 134.701 8.58328L126.938 3.75874C124.059 23.0966 106.732 34.1454 96.3507 48.7878C92.9985 53.5131 99.9164 58.288 103.64 54.8036C118.952 40.4789 136.855 29.2812 149.8 12.2166L142.51 6.20079C135.286 18.6592 125.313 28.6756 115.349 38.5828C110.939 42.9706 117.448 49.7706 121.914 45.6012C133.262 35.0091 144.618 24.4368 156.16 14.0928C160.748 9.983 154.145 2.99436 149.595 7.07437C138.053 17.4183 126.697 27.9906 115.349 38.5828L121.914 45.6012C132.472 35.0984 142.882 24.3971 150.533 11.204C153.245 6.52839 146.615 0.740923 143.244 5.18824C130.299 22.2528 112.397 33.4505 97.0842 47.7752L104.374 53.791C115.461 38.1559 132.797 27.2461 135.899 6.39934C136.567 1.91231 131.6 -2.41588 128.136 1.57479C117.847 13.4277 107.429 25.1515 96.8707 36.7364C92.6735 41.3425 99.0064 48.0036 103.436 43.7548C112.257 35.3069 119.454 25.2011 124.709 13.8645C127.356 8.15642 119.946 3.44108 116.696 8.85131C112.341 16.0881 107.345 23.4937 99.025 25.3699L103.538 33.6689C108.552 27.1369 112.879 20.2078 116.436 12.6633C118.934 7.37219 113.223 3.26239 109.146 6.64751C103.538 11.2934 97.9292 15.9392 92.3299 20.5851L99.6193 26.6009C101.671 22.1734 103.891 17.8651 106.305 13.656C109.434 8.19613 101.402 3.20283 98.2914 8.64285L98.2821 8.62299Z" fill="#35AFF9"/>
<path d="M14.144 10.9V34.444H28.796V40.24H7.592V10.9H14.144ZM46.0423 40.96C43.0423 40.96 40.3303 40.288 37.9062 38.944C35.5063 37.624 33.6223 35.8 32.2543 33.472C30.8863 31.12 30.2023 28.48 30.2023 25.552C30.2023 22.624 30.8863 19.996 32.2543 17.668C33.6223 15.316 35.5063 13.48 37.9062 12.16C40.3303 10.816 43.0423 10.144 46.0423 10.144C49.0423 10.144 51.7423 10.816 54.1423 12.16C56.5663 13.48 58.4623 15.316 59.8303 17.668C61.1983 19.996 61.8823 22.624 61.8823 25.552C61.8823 28.48 61.1983 31.12 59.8303 33.472C58.4623 35.8 56.5663 37.624 54.1423 38.944C51.7423 40.288 49.0423 40.96 46.0423 40.96ZM46.0423 35.056C47.7943 35.056 49.3783 34.648 50.7943 33.832C52.2103 33.016 53.3143 31.888 54.1063 30.448C54.9223 28.984 55.3303 27.352 55.3303 25.552C55.3303 23.728 54.9223 22.096 54.1063 20.656C53.3143 19.216 52.2103 18.088 50.7943 17.272C49.3783 16.456 47.7943 16.048 46.0423 16.048C44.2903 16.048 42.7063 16.456 41.2903 17.272C39.8743 18.088 38.7583 19.216 37.9423 20.656C37.1503 22.096 36.7543 23.728 36.7543 25.552C36.7543 27.352 37.1503 28.984 37.9423 30.448C38.7583 31.888 39.8743 33.016 41.2903 33.832C42.7063 34.648 44.2903 35.056 46.0423 35.056ZM72.3276 10.9V34.444H86.9796V40.24H65.7756V10.9H72.3276ZM92.9795 33.328C94.0115 33.328 94.8635 33.676 95.5355 34.372C96.2075 35.044 96.5435 35.896 96.5435 36.928C96.5435 37.96 96.2075 38.812 95.5355 39.484C94.8635 40.18 94.0115 40.528 92.9795 40.528C91.9475 40.528 91.0835 40.18 90.3875 39.484C89.7155 38.812 89.3795 37.96 89.3795 36.928C89.3795 35.896 89.7155 35.044 90.3875 34.372C91.0835 33.676 91.9475 33.328 92.9795 33.328Z" fill="black"/>
<path d="M113.363 40.96C110.387 40.96 107.699 40.288 105.299 38.944C102.923 37.624 101.051 35.8 99.6831 33.472C98.3391 31.12 97.6671 28.48 97.6671 25.552C97.6671 22.624 98.3391 19.996 99.6831 17.668C101.051 15.316 102.923 13.48 105.299 12.16C107.699 10.816 110.387 10.144 113.363 10.144C115.979 10.144 118.319 10.624 120.383 11.584C122.471 12.544 124.163 13.864 125.459 15.544C126.755 17.224 127.607 19.108 128.015 21.196H121.391C121.031 19.756 120.131 18.556 118.691 17.596C117.275 16.636 115.547 16.156 113.507 16.156C111.755 16.156 110.171 16.564 108.755 17.38C107.339 18.172 106.223 19.288 105.407 20.728C104.615 22.144 104.219 23.752 104.219 25.552C104.219 27.328 104.615 28.936 105.407 30.376C106.223 31.816 107.339 32.944 108.755 33.76C110.171 34.552 111.755 34.948 113.507 34.948C114.851 34.948 116.111 34.684 117.287 34.156C118.487 33.628 119.471 32.944 120.239 32.104C121.031 31.264 121.511 30.4 121.679 29.512H128.303C127.991 31.504 127.163 33.376 125.819 35.128C124.475 36.88 122.711 38.284 120.527 39.34C118.367 40.42 115.979 40.96 113.363 40.96ZM138.632 10.9V34.444H153.284V40.24H132.08V10.9H138.632Z" fill="white"/>
</svg>
